<?xml version="1.0" encoding="iso-8859-1"?>
<!-- Generator: Adobe Illustrator 16.0.0, SVG Export Plug-In . SVG Version: 6.00 Build 0)  -->
<!DOCTYPE svg PUBLIC "-//W3C//DTD SVG 1.1//EN" "http://www.w3.org/Graphics/SVG/1.1/DTD/svg11.dtd" [
	<!ENTITY ns_flows "http://ns.adobe.com/Flows/1.0/">
	<!ENTITY ns_extend "http://ns.adobe.com/Extensibility/1.0/">
	<!ENTITY ns_ai "http://ns.adobe.com/AdobeIllustrator/10.0/">
	<!ENTITY ns_graphs "http://ns.adobe.com/Graphs/1.0/">
]>
<svg version="1.1" id="Calque_1" xmlns:x="&ns_extend;" xmlns:i="&ns_ai;" xmlns:graph="&ns_graphs;"
	 xmlns="http://www.w3.org/2000/svg" xmlns:xlink="http://www.w3.org/1999/xlink" xmlns:a="http://ns.adobe.com/AdobeSVGViewerExtensions/3.0/"
	 x="0px" y="0px" width="129.99px" height="129.99px" viewBox="0 0 129.99 129.99" enable-background="new 0 0 129.99 129.99"
	 xml:space="preserve">
<g>
	<circle fill="none" stroke="#4C4B4B" stroke-width="10" stroke-miterlimit="10" cx="64.995" cy="64.995" r="59.995"/>
	<g>
		<g>
			<path fill="#4C4B4B" d="M65.295,102.963c1.008,0,2.695,0,3.75,0c1.054,0,2.929,0,4.166,0s3.225-0.197,4.416-0.439
				c1.191-0.24,3.217-0.871,4.5-1.402c1.283-0.529,3.121-1.635,4.084-2.453s2.088-2.436,2.5-3.592
				c0.412-1.158,0.75-3.682,0.75-5.609c0-1.93-0.3-5.281-0.666-7.449c-0.367-2.17-1.042-5.285-1.5-6.924
				c-0.459-1.639-1.246-4.123-1.75-5.521c-0.504-1.397-1.592-3.764-2.417-5.258s-2.212-3.545-3.083-4.557
				c-0.871-1.013-2.259-2.393-3.084-3.067c-0.825-0.675-1.95-0.951-2.5-0.613s-1.563,1.087-2.25,1.665s-2.112,1.051-3.166,1.051
				c-1.055,0-2.742,0-3.75,0c-1.008,0-2.696,0-3.75,0s-2.479-0.473-3.167-1.051s-1.7-1.328-2.25-1.665s-1.675-0.062-2.5,0.613
				c-0.825,0.674-2.212,2.055-3.083,3.067c-0.871,1.012-2.258,3.063-3.083,4.557s-1.913,3.86-2.417,5.258
				c-0.504,1.398-1.292,3.883-1.75,5.521s-1.133,4.754-1.5,6.924c-0.367,2.168-0.667,5.52-0.667,7.449
				c0,1.928,0.337,4.451,0.75,5.609c0.413,1.156,1.538,2.773,2.5,3.592s2.8,1.924,4.083,2.453c1.283,0.531,3.309,1.162,4.5,1.402
				c1.191,0.242,3.179,0.439,4.417,0.439s3.113,0,4.167,0S64.287,102.963,65.295,102.963z"/>
			<path fill="none" stroke="#4C4B4B" stroke-miterlimit="10" d="M65.295,102.963c1.008,0,2.695,0,3.75,0c1.054,0,2.929,0,4.166,0
				s3.225-0.197,4.416-0.439c1.191-0.24,3.217-0.871,4.5-1.402c1.283-0.529,3.121-1.635,4.084-2.453s2.088-2.436,2.5-3.592
				c0.412-1.158,0.75-3.682,0.75-5.609c0-1.93-0.3-5.281-0.666-7.449c-0.367-2.17-1.042-5.285-1.5-6.924
				c-0.459-1.639-1.246-4.123-1.75-5.521c-0.504-1.397-1.592-3.764-2.417-5.258s-2.212-3.545-3.083-4.557
				c-0.871-1.013-2.259-2.393-3.084-3.067c-0.825-0.675-1.95-0.951-2.5-0.613s-1.563,1.087-2.25,1.665s-2.112,1.051-3.166,1.051
				c-1.055,0-2.742,0-3.75,0c-1.008,0-2.696,0-3.75,0s-2.479-0.473-3.167-1.051s-1.7-1.328-2.25-1.665s-1.675-0.062-2.5,0.613
				c-0.825,0.674-2.212,2.055-3.083,3.067c-0.871,1.012-2.258,3.063-3.083,4.557s-1.913,3.86-2.417,5.258
				c-0.504,1.398-1.292,3.883-1.75,5.521s-1.133,4.754-1.5,6.924c-0.367,2.168-0.667,5.52-0.667,7.449
				c0,1.928,0.337,4.451,0.75,5.609c0.413,1.156,1.538,2.773,2.5,3.592s2.8,1.924,4.083,2.453c1.283,0.531,3.309,1.162,4.5,1.402
				c1.191,0.242,3.179,0.439,4.417,0.439s3.113,0,4.167,0S64.287,102.963,65.295,102.963z"/>
		</g>
		<circle fill="#4C4B4B" stroke="#4C4B4B" stroke-miterlimit="10" cx="65.295" cy="39.463" r="14.667"/>
	</g>
	<g>
		<path fill="none" stroke="#4C4B4B" stroke-width="3" stroke-miterlimit="10" d="M94.837,91.131c0.754,0,2.017,0,2.806,0
			c0.788,0,2.191,0,3.117,0s2.414-0.154,3.305-0.344c0.893-0.189,2.407-0.684,3.367-1.102c0.961-0.416,2.336-1.283,3.056-1.926
			c0.72-0.641,1.562-1.91,1.871-2.816c0.309-0.908,0.562-2.889,0.562-4.402c0-1.513-0.225-4.143-0.499-5.845
			s-0.779-4.146-1.122-5.432c-0.344-1.286-0.933-3.235-1.31-4.332c-0.378-1.097-1.191-2.953-1.809-4.126
			c-0.617-1.172-1.655-2.781-2.308-3.575c-0.651-0.794-1.689-1.877-2.307-2.407s-1.459-0.746-1.871-0.481
			c-0.412,0.265-1.17,0.853-1.684,1.307c-0.515,0.453-1.581,0.824-2.369,0.824c-0.789,0-2.052,0-2.806,0c-0.755,0-2.017,0-2.806,0
			s-1.855-0.371-2.37-0.824c-0.515-0.454-1.272-1.042-1.685-1.307c-0.411-0.265-1.253-0.048-1.87,0.481
			c-0.618,0.529-1.655,1.612-2.308,2.407c-0.65,0.794-1.689,2.403-2.307,3.575c-0.617,1.173-1.431,3.029-1.809,4.126
			c-0.377,1.096-0.967,3.045-1.31,4.332s-0.849,3.729-1.122,5.432c-0.274,1.702-0.499,4.332-0.499,5.845
			c0,1.514,0.253,3.494,0.562,4.402c0.309,0.906,1.15,2.176,1.87,2.816c0.72,0.643,2.095,1.51,3.056,1.926
			c0.961,0.418,2.476,0.912,3.367,1.102s2.379,0.344,3.305,0.344s2.33,0,3.119,0S94.082,91.131,94.837,91.131z"/>
	</g>
	<ellipse fill="none" stroke="#4C4B4B" stroke-width="3" stroke-miterlimit="10" cx="94.836" cy="40.309" rx="10.975" ry="11.507"/>
	<g>
		<path fill="none" stroke="#4C4B4B" stroke-width="3" stroke-miterlimit="10" d="M34.99,81.867c0.597,0,1.597,0,2.222,0
			c0.625,0,1.736,0,2.47,0s1.911-0.117,2.618-0.26s1.906-0.517,2.667-0.831s1.85-0.969,2.42-1.454
			c0.57-0.484,1.237-1.443,1.482-2.129c0.244-0.686,0.444-2.182,0.444-3.324c0-1.144-0.178-3.131-0.395-4.416
			C48.7,68.167,48.3,66.32,48.028,65.35c-0.271-0.971-0.738-2.443-1.037-3.272c-0.298-0.829-0.943-2.231-1.432-3.117
			s-1.312-2.101-1.828-2.701c-0.516-0.6-1.338-1.417-1.827-1.817c-0.489-0.4-1.156-0.563-1.482-0.363
			c-0.326,0.2-0.926,0.644-1.333,0.987c-0.408,0.343-1.252,0.623-1.877,0.623c-0.625,0-1.625,0-2.222,0c-0.598,0-1.598,0-2.223,0
			s-1.47-0.28-1.877-0.623c-0.408-0.343-1.008-0.787-1.334-0.987s-0.993-0.037-1.481,0.363c-0.489,0.4-1.312,1.218-1.828,1.817
			c-0.516,0.6-1.338,1.815-1.827,2.701s-1.133,2.288-1.432,3.117c-0.299,0.829-0.766,2.301-1.038,3.272
			c-0.271,0.97-0.671,2.817-0.889,4.103c-0.217,1.285-0.395,3.272-0.395,4.416c0,1.143,0.2,2.639,0.445,3.324
			c0.244,0.686,0.911,1.645,1.481,2.129c0.57,0.485,1.659,1.14,2.42,1.454s1.961,0.688,2.667,0.831s1.884,0.26,2.618,0.26
			c0.733,0,1.845,0,2.47,0S34.393,81.867,34.99,81.867z"/>
	</g>
	<circle fill="none" stroke="#4C4B4B" stroke-width="3" stroke-miterlimit="10" cx="34.99" cy="42.624" r="8.837"/>
</g>
</svg>
