<?xml version="1.0" encoding="iso-8859-1"?>
<!-- Generator: Adobe Illustrator 16.0.0, SVG Export Plug-In . SVG Version: 6.00 Build 0)  -->
<!DOCTYPE svg PUBLIC "-//W3C//DTD SVG 1.1//EN" "http://www.w3.org/Graphics/SVG/1.1/DTD/svg11.dtd" [
	<!ENTITY ns_flows "http://ns.adobe.com/Flows/1.0/">
	<!ENTITY ns_extend "http://ns.adobe.com/Extensibility/1.0/">
	<!ENTITY ns_ai "http://ns.adobe.com/AdobeIllustrator/10.0/">
	<!ENTITY ns_graphs "http://ns.adobe.com/Graphs/1.0/">
]>
<svg version="1.1" id="Calque_1" xmlns:x="&ns_extend;" xmlns:i="&ns_ai;" xmlns:graph="&ns_graphs;"
	 xmlns="http://www.w3.org/2000/svg" xmlns:xlink="http://www.w3.org/1999/xlink" xmlns:a="http://ns.adobe.com/AdobeSVGViewerExtensions/3.0/"
	 x="0px" y="0px" width="129.99px" height="129.99px" viewBox="0 0 129.99 129.99" enable-background="new 0 0 129.99 129.99"
	 xml:space="preserve">
<g>
	<circle fill="none" stroke="#4C4B4B" stroke-width="10" stroke-miterlimit="10" cx="64.995" cy="64.995" r="59.995"/>
	<g>
		<g>
			<path fill="#4C4B4B" d="M46.418,95.055c-2.205,2.205-5.813,2.205-8.018,0l-3.414-3.414c-2.205-2.205-2.205-5.813,0-8.018
				l48.551-48.552c2.205-2.205,5.813-2.205,8.018,0l3.414,3.414c2.204,2.205,2.205,5.813,0,8.018L46.418,95.055z"/>
		</g>
		<g>
			<path fill="#4C4B4B" d="M34.988,46.502c-2.205-2.205-2.205-5.813,0-8.018l3.414-3.413c2.205-2.205,5.813-2.205,8.018,0
				L94.97,83.623c2.205,2.205,2.204,5.813,0,8.018l-3.413,3.412c-2.205,2.205-5.813,2.205-8.018,0L34.988,46.502z"/>
		</g>
	</g>
</g>
</svg>
