<?xml version="1.0" encoding="iso-8859-1"?>
<!-- Generator: Adobe Illustrator 16.0.0, SVG Export Plug-In . SVG Version: 6.00 Build 0)  -->
<!DOCTYPE svg PUBLIC "-//W3C//DTD SVG 1.1//EN" "http://www.w3.org/Graphics/SVG/1.1/DTD/svg11.dtd" [
	<!ENTITY ns_flows "http://ns.adobe.com/Flows/1.0/">
	<!ENTITY ns_extend "http://ns.adobe.com/Extensibility/1.0/">
	<!ENTITY ns_ai "http://ns.adobe.com/AdobeIllustrator/10.0/">
	<!ENTITY ns_graphs "http://ns.adobe.com/Graphs/1.0/">
]>
<svg version="1.1" id="Calque_1" xmlns:x="&ns_extend;" xmlns:i="&ns_ai;" xmlns:graph="&ns_graphs;"
	 xmlns="http://www.w3.org/2000/svg" xmlns:xlink="http://www.w3.org/1999/xlink" xmlns:a="http://ns.adobe.com/AdobeSVGViewerExtensions/3.0/"
	 x="0px" y="0px" width="129.99px" height="129.991px" viewBox="0 0 129.99 129.991" enable-background="new 0 0 129.99 129.991"
	 xml:space="preserve">
<g>
	<path fill="#4C4B4B" d="M59.295,81.883c-0.431-3.096-0.322-5.934,0.323-8.514s1.59-4.944,2.838-7.096
		c1.246-2.148,2.665-4.147,4.256-5.998c1.591-1.849,3.097-3.655,4.516-5.418c1.419-1.761,2.6-3.503,3.547-5.224
		c0.945-1.719,1.42-3.568,1.42-5.547c0-3.096-0.926-5.589-2.773-7.482c-1.851-1.891-4.408-2.838-7.676-2.838
		c-2.667,0-5.076,0.603-7.224,1.806c-2.151,1.205-4.172,2.838-6.063,4.902l-8.256-7.611c2.751-3.268,6.019-5.954,9.804-8.063
		c3.784-2.106,8.041-3.161,12.771-3.161c3.439,0,6.622,0.452,9.547,1.354c2.922,0.903,5.46,2.257,7.611,4.063
		c2.148,1.806,3.805,4.043,4.966,6.708c1.161,2.667,1.741,5.763,1.741,9.288c0,2.753-0.496,5.225-1.482,7.417
		c-0.99,2.193-2.216,4.279-3.678,6.256c-1.463,1.979-3.031,3.87-4.708,5.676c-1.677,1.806-3.183,3.699-4.515,5.676
		c-1.334,1.979-2.409,4.086-3.225,6.321c-0.818,2.237-1.055,4.73-0.71,7.481H59.295z M56.328,101.104
		c0-2.922,0.903-5.33,2.709-7.223c1.806-1.891,4.083-2.84,6.837-2.84c2.752,0,5.051,0.949,6.901,2.84
		c1.849,1.893,2.773,4.301,2.773,7.223c0,2.926-0.925,5.334-2.773,7.225c-1.851,1.891-4.149,2.838-6.901,2.838
		c-2.753,0-5.031-0.947-6.837-2.838C57.231,106.438,56.328,104.03,56.328,101.104z"/>
</g>
<circle fill="none" stroke="#4C4B4B" stroke-width="10" stroke-miterlimit="10" cx="64.995" cy="64.994" r="59.995"/>
</svg>
