<?xml version="1.0" encoding="utf-8"?>
<!-- Generator: Adobe Illustrator 16.0.0, SVG Export Plug-In . SVG Version: 6.00 Build 0)  -->
<!DOCTYPE svg PUBLIC "-//W3C//DTD SVG 1.1//EN" "http://www.w3.org/Graphics/SVG/1.1/DTD/svg11.dtd">
<svg version="1.1" id="Calque_1" xmlns="http://www.w3.org/2000/svg" xmlns:xlink="http://www.w3.org/1999/xlink" x="0px" y="0px"
	 width="59.682px" height="59.694px" viewBox="0 0 59.682 59.694" enable-background="new 0 0 59.682 59.694" xml:space="preserve">
<path fill="none" stroke="#F6A114" stroke-width="3.87" stroke-miterlimit="10" d="M57.748,29.841
	c0,15.426-12.492,27.918-27.898,27.918c-15.422,0-27.914-12.492-27.914-27.918c0-15.414,12.492-27.906,27.914-27.906
	C45.255,1.935,57.748,14.427,57.748,29.841z"/>
<path fill="#F6A114" d="M26.595,22.185h6.441V49.65h-6.441V22.185z M29.841,17.38c-1.16,0-2.109-0.348-2.859-1.016
	c-0.742-0.672-1.113-1.539-1.113-2.629c0-1.078,0.371-1.969,1.113-2.648c0.75-0.699,1.699-1.043,2.859-1.043
	s2.109,0.344,2.852,1.043c0.746,0.68,1.121,1.57,1.121,2.648c0,1.09-0.375,1.957-1.121,2.629
	C31.951,17.033,31.001,17.38,29.841,17.38"/>
</svg>
