<?xml version="1.0" encoding="utf-8"?>
<!-- Generator: Adobe Illustrator 22.1.0, SVG Export Plug-In . SVG Version: 6.00 Build 0)  -->
<svg version="1.1" id="Layer_1" xmlns="http://www.w3.org/2000/svg" xmlns:xlink="http://www.w3.org/1999/xlink" x="0px" y="0px"
	 viewBox="0 0 130 130" style="enable-background:new 0 0 130 130;" xml:space="preserve">
<style type="text/css">
	.st0{fill:none;stroke:#4C4B4B;stroke-width:10;stroke-miterlimit:10;}
	.st1{fill:#4C4B4B;}
	.st2{fill:none;stroke:#4C4B4B;stroke-width:4.5;stroke-miterlimit:10;}
	.st3{fill:#4D4B4B;}
</style>
<path class="st0" d="M125,65c0,33.1-26.9,60-60,60C31.9,125,5,98.1,5,65C5,31.9,31.9,5,65,5C98.1,5,125,31.9,125,65z"/>
<rect x="62.4" y="91.2" class="st1" width="7" height="14.3"/>
<g>
	<path class="st2" d="M33.1,92.9V40.5c0-1.9,1.2-3.5,2.8-3.5h31.7h29.8h4.1c1.5,0,2.8,1.6,2.8,3.5v52.4"/>
</g>
<rect x="40.5" y="28.4" class="st1" width="20.9" height="7.9"/>
<g>
	<path class="st3" d="M89.9,65.4h-3.3v8.8h3.3c3.3,0,4.9-1.5,4.9-4.6c0-1.5-0.4-2.6-1.3-3.2C92.7,65.7,91.5,65.4,89.9,65.4z"/>
	<path class="st3" d="M91.3,44.9H15.7c8.2,0,14.8,21.5,14.8,48.1h75.5C106.1,66.3,99.5,44.9,91.3,44.9z M53.1,65.7H42.2v6.7h9.3v5.5
		h-9.3v11.2h-6.1v-29h17V65.7z M76.3,65.7h-7.4v23.5h-6V65.7h-7.4v-5.5h20.8V65.7z M97.6,77c-1,0.8-2.1,1.4-3.3,1.8
		c-1.3,0.4-2.6,0.6-4,0.6h-3.7v9.8h-6.1v-29h9.8c1.5,0,2.8,0.2,4.1,0.5c1.3,0.3,2.4,0.8,3.3,1.6c0.9,0.7,1.7,1.7,2.2,2.9
		c0.5,1.2,0.8,2.7,0.8,4.4c0,1.7-0.3,3.2-0.8,4.4C99.3,75.2,98.6,76.2,97.6,77z"/>
</g>
<rect x="40.5" y="96.5" transform="matrix(-1.836970e-16 1 -1 -1.836970e-16 149.5442 61.4967)" class="st1" width="7" height="18.1"/>
<rect x="83.8" y="96.3" transform="matrix(-1.836970e-16 1 -1 -1.836970e-16 192.8295 18.2113)" class="st1" width="7" height="18.4"/>
<rect x="60.6" y="95.9" transform="matrix(-1.836970e-16 1 -1 -1.836970e-16 171.4151 39.9219)" class="st1" width="10.3" height="19.5"/>
</svg>
