<?xml version="1.0" encoding="iso-8859-1"?>
<!-- Generator: Adobe Illustrator 16.0.0, SVG Export Plug-In . SVG Version: 6.00 Build 0)  -->
<!DOCTYPE svg PUBLIC "-//W3C//DTD SVG 1.1//EN" "http://www.w3.org/Graphics/SVG/1.1/DTD/svg11.dtd" [
	<!ENTITY ns_flows "http://ns.adobe.com/Flows/1.0/">
	<!ENTITY ns_extend "http://ns.adobe.com/Extensibility/1.0/">
	<!ENTITY ns_ai "http://ns.adobe.com/AdobeIllustrator/10.0/">
	<!ENTITY ns_graphs "http://ns.adobe.com/Graphs/1.0/">
]>
<svg version="1.1" id="Calque_1" xmlns:x="&ns_extend;" xmlns:i="&ns_ai;" xmlns:graph="&ns_graphs;"
	 xmlns="http://www.w3.org/2000/svg" xmlns:xlink="http://www.w3.org/1999/xlink" xmlns:a="http://ns.adobe.com/AdobeSVGViewerExtensions/3.0/"
	 x="0px" y="0px" width="129.99px" height="129.99px" viewBox="0 0 129.99 129.99" enable-background="new 0 0 129.99 129.99"
	 xml:space="preserve">
<circle fill="none" stroke="#4C4B4B" stroke-width="10" stroke-miterlimit="10" cx="64.995" cy="64.995" r="59.995"/>
<g>
	<path fill="#4C4B4B" d="M71.495,59.46c0,3.118-2.552,5.669-5.669,5.669h-1.661c-3.118,0-5.669-2.551-5.669-5.669V26.1
		c0-3.118,2.551-5.669,5.669-5.669h1.661c3.118,0,5.669,2.551,5.669,5.669V59.46z"/>
</g>
<path fill="#4C4B4B" stroke="#4C4B4B" stroke-width="3" stroke-miterlimit="10" d="M77.93,41.866
	c10.838,4.831,18.393,15.698,18.394,28.33c0,17.121-13.879,31-30.999,31s-30.999-13.879-30.999-31
	c0-12.632,7.555-23.499,18.393-28.33l-3.389-7.975C35.578,40.02,25.992,53.809,25.992,69.836c0,21.725,17.61,39.334,39.333,39.334
	s39.332-17.609,39.332-39.334c0-16.027-9.586-29.816-23.337-35.945L77.93,41.866z"/>
</svg>
