<?xml version="1.0" encoding="iso-8859-1"?>
<!-- Generator: Adobe Illustrator 16.0.0, SVG Export Plug-In . SVG Version: 6.00 Build 0)  -->
<!DOCTYPE svg PUBLIC "-//W3C//DTD SVG 1.1//EN" "http://www.w3.org/Graphics/SVG/1.1/DTD/svg11.dtd" [
	<!ENTITY ns_flows "http://ns.adobe.com/Flows/1.0/">
	<!ENTITY ns_extend "http://ns.adobe.com/Extensibility/1.0/">
	<!ENTITY ns_ai "http://ns.adobe.com/AdobeIllustrator/10.0/">
	<!ENTITY ns_graphs "http://ns.adobe.com/Graphs/1.0/">
]>
<svg version="1.1" id="Calque_1" xmlns:x="&ns_extend;" xmlns:i="&ns_ai;" xmlns:graph="&ns_graphs;"
	 xmlns="http://www.w3.org/2000/svg" xmlns:xlink="http://www.w3.org/1999/xlink" xmlns:a="http://ns.adobe.com/AdobeSVGViewerExtensions/3.0/"
	 x="0px" y="0px" width="129.99px" height="129.99px" viewBox="0 0 129.99 129.99" enable-background="new 0 0 129.99 129.99"
	 xml:space="preserve">
<circle fill="none" stroke="#4C4B4B" stroke-width="10" stroke-miterlimit="10" cx="64.995" cy="64.994" r="59.995"/>
<g>
	<path fill="#4C4B4B" d="M12.764,58.137c8.207,0,14.848,18.503,14.848,41.371h75.539c0-22.867-6.641-41.371-14.848-41.371H12.764z"
		/>
	<g>
		<path fill="none" stroke="#4C4B4B" stroke-width="4.5" stroke-miterlimit="10" d="M94.418,41.256h4.125
			c1.52,0,2.752,1.646,2.752,3.676v54.576"/>
		<path fill="none" stroke="#4C4B4B" stroke-width="4.5" stroke-miterlimit="10" d="M30.17,99.507V44.932
			c0-2.03,1.232-3.676,2.752-3.676H64.64"/>
	</g>
	
		<line fill="none" stroke="#4C4B4B" stroke-width="4.2124" stroke-miterlimit="10" x1="37.545" y1="37.339" x2="58.42" y2="37.339"/>
	<g>
		<path fill="#4C4B4B" d="M84.357,25.381c-0.653,0-2.847,0.394-4.875,0.875s-4.925,1.634-6.438,2.563s-3.396,2.672-4.188,3.875
			s-1.354,3.003-1.25,4s0.497,2.741,0.875,3.875s1.56,3.188,2.625,4.563s3.541,3.766,5.5,5.313s4.068,3.094,4.688,3.438
			s1.097,0.259,1.063-0.188s-0.428-1.15-0.875-1.563s-1.15-1.06-1.563-1.438s-1.313-1.391-2-2.25s-1.447-2.097-1.688-2.75
			s-0.466-1.919-0.5-2.813s0.162-2.328,0.438-3.188s1.146-2.041,1.938-2.625s2.253-1.091,3.25-1.125s2.347-0.034,3,0
			s1.188-2.328,1.188-5.25S85.011,25.381,84.357,25.381z"/>
	</g>
	<polygon fill="#4C4B4B" points="83.17,42.631 83.17,17.131 100.045,29.881 	"/>
</g>
</svg>
