<?xml version="1.0" encoding="iso-8859-1"?>
<!-- Generator: Adobe Illustrator 16.0.0, SVG Export Plug-In . SVG Version: 6.00 Build 0)  -->
<!DOCTYPE svg PUBLIC "-//W3C//DTD SVG 1.1//EN" "http://www.w3.org/Graphics/SVG/1.1/DTD/svg11.dtd" [
	<!ENTITY ns_flows "http://ns.adobe.com/Flows/1.0/">
	<!ENTITY ns_extend "http://ns.adobe.com/Extensibility/1.0/">
	<!ENTITY ns_ai "http://ns.adobe.com/AdobeIllustrator/10.0/">
	<!ENTITY ns_graphs "http://ns.adobe.com/Graphs/1.0/">
]>
<svg version="1.1" id="Calque_1" xmlns:x="&ns_extend;" xmlns:i="&ns_ai;" xmlns:graph="&ns_graphs;"
	 xmlns="http://www.w3.org/2000/svg" xmlns:xlink="http://www.w3.org/1999/xlink" xmlns:a="http://ns.adobe.com/AdobeSVGViewerExtensions/3.0/"
	 x="0px" y="0px" width="129.991px" height="129.991px" viewBox="0 0 129.991 129.991" enable-background="new 0 0 129.991 129.991"
	 xml:space="preserve">
<g>
	<g>
		<path fill="none" stroke="#4C4B4B" stroke-width="10" stroke-miterlimit="10" d="M55.154,95.713
			c-12.697-4.061-21.891-15.96-21.891-30.006c0-17.396,14.102-31.498,31.498-31.498s31.498,14.102,31.498,31.498"/>
		<polygon fill="#4C4B4B" points="61.375,30.775 56.124,30.775 60.019,18.583 63.406,18.583 66.961,18.583 70.348,18.583 
			74.244,30.775 68.994,30.775 		"/>
		<g>
			<polygon fill="#4C4B4B" points="82.579,35.207 78.337,32.111 88.673,24.561 91.409,26.558 94.281,28.655 97.016,30.652 
				92.971,42.796 88.731,39.7 			"/>
			<polygon fill="#4C4B4B" points="41.636,91.28 37.396,88.184 33.352,100.329 36.087,102.327 38.959,104.422 41.694,106.42 
				52.03,98.87 47.79,95.774 			"/>
		</g>
		<g>
			<polygon fill="#4C4B4B" points="96.918,51.125 95.258,46.144 108.057,45.986 109.127,49.2 110.25,52.574 111.321,55.787 
				100.984,63.335 99.325,58.353 			"/>
			<polygon fill="#4C4B4B" points="31.044,73.061 29.385,68.08 19.048,75.626 20.117,78.84 21.241,82.214 22.311,85.428 
				35.111,85.27 33.451,80.29 			"/>
		</g>
		<polygon fill="#4C4B4B" points="33.469,51.256 35.134,46.276 22.335,46.103 21.26,49.316 20.133,52.688 19.058,55.9 29.388,63.46 
			31.052,58.48 		"/>
		<polygon fill="#4C4B4B" points="47.857,35.557 52.105,32.47 41.786,24.896 39.045,26.887 36.169,28.979 33.429,30.969 
			37.448,43.122 41.694,40.035 		"/>
	</g>
	<g>
		<path fill="#4C4B4B" d="M71.256,67.715c1.841-1.339,2.063-4.171,0.497-6.325l-10.459-14.38l0.361-0.263
			c6.863-1.305,14.183,1.322,18.564,7.348c6.056,8.324,4.215,19.979-4.108,26.033c-8.324,6.055-19.979,4.215-26.033-4.108
			c-4.383-6.026-4.627-13.797-1.272-19.927l0.625-0.456l10.459,14.381c1.566,2.153,4.33,2.813,6.17,1.474L71.256,67.715z"/>
		<path fill="#4C4B4B" d="M96.458,93.709c1.196,1.746,0.645,4.203-1.232,5.492l-7.744,5.311c-1.877,1.289-4.37,0.922-5.565-0.822
			L65.904,80.358c-1.197-1.744-0.643-4.203,1.234-5.49l7.743-5.313c1.876-1.288,4.369-0.919,5.564,0.825L96.458,93.709z"/>
	</g>
</g>
<circle fill="none" stroke="#4C4B4B" stroke-width="10" stroke-miterlimit="10" cx="64.995" cy="64.994" r="59.995"/>
</svg>
