<?xml version="1.0" encoding="iso-8859-1"?>
<!-- Generator: Adobe Illustrator 16.0.0, SVG Export Plug-In . SVG Version: 6.00 Build 0)  -->
<!DOCTYPE svg PUBLIC "-//W3C//DTD SVG 1.1//EN" "http://www.w3.org/Graphics/SVG/1.1/DTD/svg11.dtd" [
	<!ENTITY ns_flows "http://ns.adobe.com/Flows/1.0/">
	<!ENTITY ns_extend "http://ns.adobe.com/Extensibility/1.0/">
	<!ENTITY ns_ai "http://ns.adobe.com/AdobeIllustrator/10.0/">
	<!ENTITY ns_graphs "http://ns.adobe.com/Graphs/1.0/">
]>
<svg version="1.1" id="Calque_1" xmlns:x="&ns_extend;" xmlns:i="&ns_ai;" xmlns:graph="&ns_graphs;"
	 xmlns="http://www.w3.org/2000/svg" xmlns:xlink="http://www.w3.org/1999/xlink" xmlns:a="http://ns.adobe.com/AdobeSVGViewerExtensions/3.0/"
	 x="0px" y="0px" width="129.99px" height="129.99px" viewBox="0 0 129.99 129.99" enable-background="new 0 0 129.99 129.99"
	 xml:space="preserve">
<circle fill="none" stroke="#4C4B4B" stroke-width="10" stroke-miterlimit="10" cx="64.995" cy="64.994" r="59.995"/>
<g>
	<rect x="90.24" y="57.618" fill="#4C4B4B" width="18.594" height="2.042"/>
	<path fill="#4C4B4B" d="M37.254,51.169v52.877h19.938V81.025h16.013v23.021h19.937V51.169H37.254z M56.393,65.948H43.81V53.374
		h12.583V65.948z M86.585,65.948H74.001V53.374h12.584V65.948z"/>
	<rect x="42.285" y="29.219" fill="#4C4B4B" width="6.292" height="14.67"/>
	<polygon fill="#4C4B4B" points="43.811,53.374 56.394,53.374 56.394,57.618 74.003,57.618 74.003,53.374 86.585,53.374 
		86.585,57.618 108.833,57.618 65.843,26.021 64.553,26.021 21.563,57.618 43.811,57.618 	"/>
	<rect x="21.563" y="57.618" fill="#4C4B4B" width="19.775" height="2.042"/>
</g>
</svg>
