<?xml version="1.0" encoding="utf-8"?>
<!-- Generator: Adobe Illustrator 22.1.0, SVG Export Plug-In . SVG Version: 6.00 Build 0)  -->
<svg version="1.1" id="Layer_1" xmlns="http://www.w3.org/2000/svg" xmlns:xlink="http://www.w3.org/1999/xlink" x="0px" y="0px"
	 viewBox="0 0 130 130" style="enable-background:new 0 0 130 130;" xml:space="preserve">
<style type="text/css">
	.st0{fill:#C81517;}
	.st1{fill:none;stroke:#4D4C4C;stroke-width:3;stroke-miterlimit:10;}
	.st2{fill:#4D4C4C;}
	.st3{fill:none;stroke:#4C4B4B;stroke-width:10;stroke-miterlimit:10;}
</style>
<g>
	<path class="st0" d="M40.4,32.9c3.4,0,6.1-2.7,6.1-6.1c0-3.4-2.7-6.1-6.1-6.1c-3.4,0-6.1,2.7-6.1,6.1C34.2,30.2,37,32.9,40.4,32.9z
		"/>
	<path class="st0" d="M92.7,89.6c-3.4,0-6.1,2.7-6.1,6.1c0,3.4,2.7,6.1,6.1,6.1c3.4,0,6.1-2.7,6.1-6.1
		C98.8,92.3,96.1,89.6,92.7,89.6z"/>
	<path class="st0" d="M39.7,100.1c-3.1,0-5.6,2.5-5.6,5.6s2.5,5.6,5.6,5.6c3.1,0,5.6-2.5,5.6-5.6S42.8,100.1,39.7,100.1z"/>
	<path class="st0" d="M90.7,42.2c3.1,0,5.6-2.5,5.6-5.6c0-3.1-2.5-5.6-5.6-5.6c-3.1,0-5.6,2.5-5.6,5.6
		C85.1,39.7,87.6,42.2,90.7,42.2z"/>
	<path class="st0" d="M70.5,17.3c0,2.6,2.1,4.7,4.7,4.7c2.6,0,4.7-2.1,4.7-4.7c0-2.6-2.1-4.7-4.7-4.7C72.6,12.5,70.5,14.6,70.5,17.3
		z"/>
	<line class="st1" x1="85.4" y1="30" x2="80.5" y2="23.8"/>
	<line class="st1" x1="84" y1="49.5" x2="86.8" y2="44.1"/>
	<line class="st1" x1="89.3" y1="88" x2="82.7" y2="73"/>
	<line class="st1" x1="49.1" y1="78.9" x2="42.5" y2="97.8"/>
	<line class="st1" x1="47.9" y1="104.1" x2="84.4" y2="97.2"/>
	<line class="st1" x1="42.9" y1="34.9" x2="48.7" y2="53.5"/>
	<line class="st1" x1="48.5" y1="24.6" x2="67.1" y2="19.5"/>
	<g>
		<path class="st2" d="M45.3,56.5H57v2.9h-8.3v5.5h7v2.9h-7v8.1h-3.4V56.5z"/>
	</g>
	<g>
		<path class="st2" d="M65,57.3h-5.6v-2.9H74v2.9h-5.6v16.5H65V57.3z"/>
	</g>
	<g>
		<path class="st2" d="M76.8,51.7h6.5c1.1,0,2.1,0.1,3,0.3c0.9,0.2,1.7,0.5,2.3,1c0.7,0.5,1.2,1.1,1.5,1.9c0.4,0.8,0.5,1.7,0.5,2.8
			c0,1.1-0.2,2-0.6,2.8c-0.4,0.8-0.9,1.4-1.6,2c-0.7,0.5-1.4,0.9-2.3,1.2c-0.9,0.2-1.9,0.4-2.9,0.4h-3.1v7.1h-3.4V51.7z M83.1,61.3
			c1.5,0,2.5-0.3,3.2-0.9c0.7-0.6,1-1.5,1-2.7c0-1.2-0.4-2.1-1.1-2.5c-0.7-0.5-1.8-0.7-3.2-0.7h-2.8v6.8H83.1z"/>
	</g>
</g>
<path class="st3" d="M125,65c0,33.1-26.9,60-60,60C31.9,125,5,98.1,5,65C5,31.9,31.9,5,65,5C98.1,5,125,31.9,125,65z"/>
</svg>
