<?xml version="1.0" encoding="utf-8"?>
<!-- Generator: Adobe Illustrator 22.1.0, SVG Export Plug-In . SVG Version: 6.00 Build 0)  -->
<svg version="1.1" id="Layer_1" xmlns="http://www.w3.org/2000/svg" xmlns:xlink="http://www.w3.org/1999/xlink" x="0px" y="0px"
	 viewBox="0 0 85.2 130" style="enable-background:new 0 0 85.2 130;" xml:space="preserve">
<style type="text/css">
	.st0{fill:#C81517;}
	.st1{fill:none;stroke:#4D4C4C;stroke-width:3;stroke-miterlimit:10;}
	.st2{fill:#4D4C4C;}
</style>
<g>
	<path class="st0" d="M8.3,26.8c4.4,0,8-3.6,8-8c0-4.4-3.6-8-8-8c-4.4,0-8,3.6-8,8C0.3,23.2,3.9,26.8,8.3,26.8z"/>
	<path class="st0" d="M77.2,101.4c-4.4,0-8,3.6-8,8c0,4.4,3.6,8,8,8c4.4,0,8-3.6,8-8C85.2,105,81.6,101.4,77.2,101.4z"/>
	<path class="st0" d="M7.4,115.2c-4.1,0-7.4,3.3-7.4,7.4c0,4.1,3.3,7.4,7.4,7.4c4.1,0,7.4-3.3,7.4-7.4
		C14.8,118.6,11.5,115.2,7.4,115.2z"/>
	<path class="st0" d="M74.6,39.1c4.1,0,7.4-3.3,7.4-7.4c0-4.1-3.3-7.4-7.4-7.4c-4.1,0-7.4,3.3-7.4,7.4
		C67.2,35.8,70.5,39.1,74.6,39.1z"/>
	<path class="st0" d="M48,6.2c0,3.4,2.8,6.2,6.2,6.2c3.4,0,6.2-2.8,6.2-6.2c0-3.4-2.8-6.2-6.2-6.2C50.8,0,48,2.8,48,6.2z"/>
	<line class="st1" x1="67.7" y1="23" x2="61.1" y2="14.9"/>
	<line class="st1" x1="65.8" y1="48.6" x2="69.5" y2="41.5"/>
	<line class="st1" x1="72.7" y1="99.3" x2="64.1" y2="79.5"/>
	<line class="st1" x1="19.9" y1="87.4" x2="11.1" y2="112.2"/>
	<line class="st1" x1="18.3" y1="120.6" x2="66.3" y2="111.5"/>
	<line class="st1" x1="11.6" y1="29.4" x2="19.2" y2="53.9"/>
	<line class="st1" x1="19" y1="15.9" x2="43.6" y2="9.1"/>
	<g>
		<path class="st2" d="M14.8,57.9h15.4v3.8H19.4V69h9.3v3.8h-9.3v10.7h-4.5V57.9z"/>
	</g>
	<g>
		<path class="st2" d="M40.7,59h-7.4v-3.8h19.2V59h-7.3v21.7h-4.5V59z"/>
	</g>
	<g>
		<path class="st2" d="M56.3,51.6h8.6c1.4,0,2.7,0.1,3.9,0.4c1.2,0.3,2.2,0.7,3.1,1.3c0.9,0.6,1.5,1.4,2,2.4c0.5,1,0.7,2.2,0.7,3.7
			c0,1.4-0.2,2.6-0.7,3.7c-0.5,1-1.2,1.9-2,2.6c-0.9,0.7-1.9,1.2-3.1,1.5c-1.2,0.3-2.5,0.5-3.8,0.5h-4.1v9.4h-4.5V51.6z M64.5,64.1
			c1.9,0,3.3-0.4,4.3-1.2c0.9-0.8,1.4-1.9,1.4-3.5c0-1.6-0.5-2.7-1.4-3.3c-0.9-0.6-2.3-0.9-4.2-0.9h-3.7v8.9H64.5z"/>
	</g>
</g>
</svg>
