<?xml version="1.0" encoding="utf-8"?>
<!-- Generator: Adobe Illustrator 22.1.0, SVG Export Plug-In . SVG Version: 6.00 Build 0)  -->
<svg version="1.1" id="Layer_1" xmlns="http://www.w3.org/2000/svg" xmlns:xlink="http://www.w3.org/1999/xlink" x="0px" y="0px"
	 viewBox="0 0 127.7 98.4" style="enable-background:new 0 0 127.7 98.4;" xml:space="preserve">
<style type="text/css">
	.st0{fill:#4C4B4B;}
</style>
<g>
	<path class="st0" d="M49.1,0c-1.2,0-4,1.8-6.2,4L1.7,45.2c-2.2,2.2-2.2,5.8,0,8l41.2,41.2c2.2,2.2,5,4,6.2,4c1.2,0,2.2-2.6,2.2-5.7
		v-19c0-3.1,2.6-5.7,5.7-5.7H122c3.1,0,5.7-2.6,5.7-5.7V36c0-3.1-2.6-5.7-5.7-5.7l-65.1,0c-3.1,0-5.7-2.6-5.7-5.7v-19
		C51.3,2.6,50.3,0,49.1,0z"/>
</g>
</svg>
