<?xml version="1.0" encoding="utf-8"?>
<!-- Generator: Adobe Illustrator 22.1.0, SVG Export Plug-In . SVG Version: 6.00 Build 0)  -->
<svg version="1.1" id="Layer_1" xmlns="http://www.w3.org/2000/svg" xmlns:xlink="http://www.w3.org/1999/xlink" x="0px" y="0px"
	 viewBox="0 0 130 130" style="enable-background:new 0 0 130 130;" xml:space="preserve">
<style type="text/css">
	.st0{fill:none;stroke:#4C4B4B;stroke-width:10;stroke-miterlimit:10;}
	.st1{fill:none;stroke:#4C4B4B;stroke-width:6;stroke-miterlimit:10;}
	.st2{fill:#4C4B4B;}
</style>
<g>
	<ellipse transform="matrix(0.1592 -0.9872 0.9872 0.1592 -9.5189 118.8136)" class="st0" cx="65" cy="65" rx="60" ry="60"/>
	<path class="st1" d="M77,100.9c-13,4.3-27.9,1.2-38.3-9.1C24,77.1,24,53.3,38.7,38.7"/>
	<path class="st1" d="M53.4,29.6c13-4.3,28-1.3,38.3,9.1c14.7,14.7,14.7,38.4,0,53.1"/>
	<g>
		<path class="st2" d="M34.3,42.2c0,0,0.5,1.2,1.1,2.7L38,51c0.6,1.4,1.5,2.7,1.9,2.7c0.5,0.1,1.2-1.1,1.6-2.6L46.5,33
			c0.4-1.5,0.5-2.9,0.3-3.2c-0.3-0.3-1.7-0.1-3.2,0.3L25.4,35c-1.5,0.4-2.7,1.1-2.6,1.6c0.1,0.5,1.3,1.3,2.7,1.9l6.2,2.6
			C33.1,41.7,34.3,42.2,34.3,42.2z"/>
	</g>
	<g>
		<path class="st2" d="M96.9,86.6c0,0-0.5-1.2-1.1-2.7l-2.6-6.2c-0.6-1.4-1.5-2.7-1.9-2.7c-0.5-0.1-1.2,1.1-1.6,2.6l-4.9,18.2
			c-0.4,1.5-0.5,2.9-0.3,3.2c0.3,0.3,1.7,0.1,3.2-0.3l18.2-4.9c1.5-0.4,2.7-1.1,2.6-1.6c-0.1-0.5-1.3-1.3-2.7-1.9l-6.2-2.6
			C98.2,87.1,97,86.6,96.9,86.6z"/>
	</g>
</g>
</svg>
