<?xml version="1.0" encoding="iso-8859-1"?>
<!-- Generator: Adobe Illustrator 16.0.0, SVG Export Plug-In . SVG Version: 6.00 Build 0)  -->
<!DOCTYPE svg PUBLIC "-//W3C//DTD SVG 1.1//EN" "http://www.w3.org/Graphics/SVG/1.1/DTD/svg11.dtd" [
	<!ENTITY ns_flows "http://ns.adobe.com/Flows/1.0/">
	<!ENTITY ns_extend "http://ns.adobe.com/Extensibility/1.0/">
	<!ENTITY ns_ai "http://ns.adobe.com/AdobeIllustrator/10.0/">
	<!ENTITY ns_graphs "http://ns.adobe.com/Graphs/1.0/">
]>
<svg version="1.1" id="Calque_1" xmlns:x="&ns_extend;" xmlns:i="&ns_ai;" xmlns:graph="&ns_graphs;"
	 xmlns="http://www.w3.org/2000/svg" xmlns:xlink="http://www.w3.org/1999/xlink" xmlns:a="http://ns.adobe.com/AdobeSVGViewerExtensions/3.0/"
	 x="0px" y="0px" width="129.99px" height="129.99px" viewBox="0 0 129.99 129.99" enable-background="new 0 0 129.99 129.99"
	 xml:space="preserve">
<circle fill="none" stroke="#4C4B4B" stroke-width="10" stroke-miterlimit="10" cx="64.995" cy="64.995" r="59.995"/>
<path fill="none" stroke="#4C4B4B" stroke-width="6" stroke-miterlimit="10" d="M67.879,103.379H34.296
	c-3.224,0-5.835-2.555-5.835-5.707V33.587c0-3.152,2.611-5.708,5.835-5.708h61.915c3.223,0,5.834,2.556,5.834,5.708v27.876"/>
<rect x="47.378" y="27.879" fill="none" stroke="#4C4B4B" stroke-width="4" stroke-miterlimit="10" width="36" height="31"/>
<rect x="47.378" y="27.879" fill="#4C4B4B" width="27.167" height="31"/>
<g>
	<g>
		<path fill="#4C4B4B" d="M106.563,90.938c1.103,1.102,1.103,2.906,0,4.008l-6.429,6.43c-1.103,1.102-2.906,1.102-4.009,0
			L82.76,88.01c-1.103-1.104-1.103-2.908,0-4.01l6.428-6.429c1.104-1.103,2.906-1.103,4.01,0L106.563,90.938z"/>
	</g>
	<polygon fill="#4C4B4B" points="104.936,69.998 75.186,99.748 72.825,67.639 	"/>
</g>
</svg>
