<?xml version="1.0" encoding="utf-8"?>
<!-- Generator: Adobe Illustrator 22.1.0, SVG Export Plug-In . SVG Version: 6.00 Build 0)  -->
<svg version="1.1" id="Layer_1" xmlns="http://www.w3.org/2000/svg" xmlns:xlink="http://www.w3.org/1999/xlink" x="0px" y="0px"
	 viewBox="0 0 127.7 98.4" style="enable-background:new 0 0 127.7 98.4;" xml:space="preserve">
<style type="text/css">
	.st0{fill:#4C4B4B;}
</style>
<g>
	<path class="st0" d="M78.6,98.4c1.2,0,4-1.8,6.2-4L126,53.2c2.2-2.2,2.2-5.8,0-8L84.9,4c-2.2-2.2-5-4-6.2-4c-1.2,0-2.2,2.6-2.2,5.7
		v19c0,3.1-2.6,5.7-5.7,5.7H5.7C2.6,30.3,0,32.9,0,36v26.4c0,3.1,2.6,5.7,5.7,5.7l65.1,0c3.1,0,5.7,2.6,5.7,5.7v19
		C76.4,95.8,77.4,98.4,78.6,98.4z"/>
</g>
</svg>
