<?xml version="1.0" encoding="utf-8"?>
<!-- Generator: Adobe Illustrator 16.0.0, SVG Export Plug-In . SVG Version: 6.00 Build 0)  -->
<!DOCTYPE svg PUBLIC "-//W3C//DTD SVG 1.1//EN" "http://www.w3.org/Graphics/SVG/1.1/DTD/svg11.dtd">
<svg version="1.1" id="Calque_1" xmlns="http://www.w3.org/2000/svg" xmlns:xlink="http://www.w3.org/1999/xlink" x="0px" y="0px"
	 width="998px" height="582px" viewBox="397 685 998 582" enable-background="new 397 685 998 582" xml:space="preserve">
<path fill="#4B4B4B" d="M1395,1184c0,8.666-3.333,16.333-10,23l-50,50c-6.666,6.666-14.333,10-23,10c-8.666,0-16.333-3.334-23-10
	L896,864l-393,393c-6.666,6.666-14.333,10-23,10c-8.666,0-16.333-3.334-23-10l-50-50c-6.666-6.667-10-14.334-10-23
	c0-8.667,3.334-16.334,10-23l466-466c6.667-6.667,14.334-10,23-10c8.667,0,16.334,3.333,23,10l466,466
	C1391.667,1167.666,1395,1175.333,1395,1184z"/>
</svg>
